<mxfile host="Electron" agent="Mozilla/5.0 (Windows NT 10.0; Win64; x64) AppleWebKit/537.36 (KHTML, like Gecko) draw.io/28.0.6 Chrome/138.0.7204.100 Electron/37.2.3 Safari/537.36" version="28.0.6">
  <diagram name="Página-1" id="Z2hbqmZy6C8yIQ7Zjdex">
    <mxGraphModel dx="983" dy="580" grid="0" gridSize="10" guides="1" tooltips="1" connect="1" arrows="1" fold="1" page="1" pageScale="1" pageWidth="827" pageHeight="1169" math="0" shadow="0">
      <root>
        <mxCell id="0" />
        <mxCell id="1" parent="0" />
        <mxCell id="Zbl4ISKt3xih8UZG1c8V-1" value="&lt;span style=&quot;color: rgba(0, 0, 0, 0); font-family: monospace; font-size: 0px; text-wrap-mode: nowrap;&quot;&gt;%3CmxGraphModel%3E%3Croot%3E%3CmxCell%20id%3D%220%22%2F%3E%3CmxCell%20id%3D%221%22%20parent%3D%220%22%2F%3E%3CmxCell%20id%3D%222%22%20value%3D%22Crear%20tabla%20din%C3%A1mica%20para%20agrupar%20por%20facultad%20de%20Maestr%C3%ADa%20y%20contabilizar%20aulas%22%20style%3D%22whiteSpace%3Dwrap%3Bhtml%3D1%3Brounded%3D0%3BfontFamily%3DTimes%20New%20Roman%3BfontSize%3D14%3B%22%20vertex%3D%221%22%20parent%3D%221%22%3E%3CmxGeometry%20x%3D%22586.5%22%20y%3D%22691%22%20width%3D%22125%22%20height%3D%2264%22%20as%3D%22geometry%22%2F%3E%3C%2FmxCell%3E%3C%2Froot%3E%3C%2FmxGraphModel%3E&lt;/span&gt;" style="text;whiteSpace=wrap;html=1;" vertex="1" parent="1">
          <mxGeometry x="63" y="40" width="110" height="40" as="geometry" />
        </mxCell>
        <mxCell id="Zbl4ISKt3xih8UZG1c8V-2" value="Revisión y elaboración de estadístico de finalización del ciclo anterior (Histórico) &#xa;Caso Preespecialidad - Docentes" style="shape=table;startSize=34;container=1;collapsible=0;childLayout=tableLayout;fixedRows=1;rowLines=0;fontStyle=0;fontSize=14;fontFamily=Times New Roman;" vertex="1" parent="1">
          <mxGeometry x="23" y="20" width="469" height="106" as="geometry" />
        </mxCell>
        <mxCell id="Zbl4ISKt3xih8UZG1c8V-3" value="" style="shape=tableRow;horizontal=0;startSize=0;swimlaneHead=0;swimlaneBody=0;top=0;left=0;bottom=0;right=0;collapsible=0;dropTarget=0;fillColor=none;points=[[0,0.5],[1,0.5]];portConstraint=eastwest;strokeColor=inherit;fontSize=16;fontFamily=Times New Roman;" vertex="1" parent="Zbl4ISKt3xih8UZG1c8V-2">
          <mxGeometry y="34" width="469" height="22" as="geometry" />
        </mxCell>
        <mxCell id="Zbl4ISKt3xih8UZG1c8V-4" value="&lt;font style=&quot;font-size: 14px;&quot;&gt;Detalle&lt;/font&gt;&lt;div&gt;&lt;br&gt;&lt;/div&gt;" style="shape=partialRectangle;html=1;whiteSpace=wrap;connectable=0;fillColor=none;top=0;left=0;bottom=0;right=0;overflow=hidden;pointerEvents=1;strokeColor=inherit;fontSize=16;fontFamily=Times New Roman;" vertex="1" parent="Zbl4ISKt3xih8UZG1c8V-3">
          <mxGeometry width="74" height="22" as="geometry">
            <mxRectangle width="74" height="22" as="alternateBounds" />
          </mxGeometry>
        </mxCell>
        <mxCell id="Zbl4ISKt3xih8UZG1c8V-5" value="&lt;font style=&quot;font-size: 14px;&quot;&gt;Ciclo 01-2025&lt;/font&gt;" style="shape=partialRectangle;html=1;whiteSpace=wrap;connectable=0;fillColor=none;top=0;left=0;bottom=0;right=0;align=left;spacingLeft=6;overflow=hidden;strokeColor=inherit;fontSize=16;fontFamily=Times New Roman;" vertex="1" parent="Zbl4ISKt3xih8UZG1c8V-3">
          <mxGeometry x="74" width="395" height="22" as="geometry">
            <mxRectangle width="395" height="22" as="alternateBounds" />
          </mxGeometry>
        </mxCell>
        <mxCell id="Zbl4ISKt3xih8UZG1c8V-6" value="" style="shape=tableRow;horizontal=0;startSize=0;swimlaneHead=0;swimlaneBody=0;top=0;left=0;bottom=0;right=0;collapsible=0;dropTarget=0;fillColor=none;points=[[0,0.5],[1,0.5]];portConstraint=eastwest;strokeColor=inherit;fontSize=16;fontFamily=Times New Roman;" vertex="1" parent="Zbl4ISKt3xih8UZG1c8V-2">
          <mxGeometry y="56" width="469" height="30" as="geometry" />
        </mxCell>
        <mxCell id="Zbl4ISKt3xih8UZG1c8V-7" value="&lt;font style=&quot;font-size: 14px;&quot;&gt;Encargado&lt;/font&gt;" style="shape=partialRectangle;html=1;whiteSpace=wrap;connectable=0;fillColor=none;top=0;left=0;bottom=0;right=0;overflow=hidden;strokeColor=inherit;fontSize=16;fontFamily=Times New Roman;" vertex="1" parent="Zbl4ISKt3xih8UZG1c8V-6">
          <mxGeometry width="74" height="30" as="geometry">
            <mxRectangle width="74" height="30" as="alternateBounds" />
          </mxGeometry>
        </mxCell>
        <mxCell id="Zbl4ISKt3xih8UZG1c8V-8" value="&lt;font style=&quot;font-size: 14px;&quot;&gt;Juan Santos&lt;/font&gt;" style="shape=partialRectangle;html=1;whiteSpace=wrap;connectable=0;fillColor=none;top=0;left=0;bottom=0;right=0;align=left;spacingLeft=6;overflow=hidden;strokeColor=inherit;fontSize=16;fontFamily=Times New Roman;" vertex="1" parent="Zbl4ISKt3xih8UZG1c8V-6">
          <mxGeometry x="74" width="395" height="30" as="geometry">
            <mxRectangle width="395" height="30" as="alternateBounds" />
          </mxGeometry>
        </mxCell>
        <mxCell id="Zbl4ISKt3xih8UZG1c8V-9" value="" style="shape=tableRow;horizontal=0;startSize=0;swimlaneHead=0;swimlaneBody=0;top=0;left=0;bottom=0;right=0;collapsible=0;dropTarget=0;fillColor=none;points=[[0,0.5],[1,0.5]];portConstraint=eastwest;strokeColor=inherit;fontSize=16;fontFamily=Times New Roman;" vertex="1" parent="Zbl4ISKt3xih8UZG1c8V-2">
          <mxGeometry y="86" width="469" height="20" as="geometry" />
        </mxCell>
        <mxCell id="Zbl4ISKt3xih8UZG1c8V-10" value="" style="shape=partialRectangle;html=1;whiteSpace=wrap;connectable=0;fillColor=none;top=0;left=0;bottom=0;right=0;overflow=hidden;strokeColor=inherit;fontSize=16;fontFamily=Times New Roman;" vertex="1" parent="Zbl4ISKt3xih8UZG1c8V-9">
          <mxGeometry width="74" height="20" as="geometry">
            <mxRectangle width="74" height="20" as="alternateBounds" />
          </mxGeometry>
        </mxCell>
        <mxCell id="Zbl4ISKt3xih8UZG1c8V-11" value="" style="shape=partialRectangle;html=1;whiteSpace=wrap;connectable=0;fillColor=none;top=0;left=0;bottom=0;right=0;align=left;spacingLeft=6;overflow=hidden;strokeColor=inherit;fontSize=16;fontFamily=Times New Roman;" vertex="1" parent="Zbl4ISKt3xih8UZG1c8V-9">
          <mxGeometry x="74" width="395" height="20" as="geometry">
            <mxRectangle width="395" height="20" as="alternateBounds" />
          </mxGeometry>
        </mxCell>
        <mxCell id="Zbl4ISKt3xih8UZG1c8V-12" value="" style="edgeStyle=orthogonalEdgeStyle;rounded=0;orthogonalLoop=1;jettySize=auto;html=1;fontSize=14;" edge="1" parent="1" source="Zbl4ISKt3xih8UZG1c8V-13" target="Zbl4ISKt3xih8UZG1c8V-15">
          <mxGeometry relative="1" as="geometry" />
        </mxCell>
        <mxCell id="Zbl4ISKt3xih8UZG1c8V-13" value="&lt;font face=&quot;Times New Roman&quot;&gt;Revisión y elaboración de estadístico de finalización del ciclo anterior&lt;/font&gt;" style="rounded=0;whiteSpace=wrap;html=1;fillColor=#dae8fc;strokeColor=#6c8ebf;fontSize=14;" vertex="1" parent="1">
          <mxGeometry x="315" y="248" width="193" height="55" as="geometry" />
        </mxCell>
        <mxCell id="Zbl4ISKt3xih8UZG1c8V-14" value="" style="edgeStyle=orthogonalEdgeStyle;rounded=0;orthogonalLoop=1;jettySize=auto;html=1;" edge="1" parent="1" source="Zbl4ISKt3xih8UZG1c8V-15" target="Zbl4ISKt3xih8UZG1c8V-26">
          <mxGeometry relative="1" as="geometry" />
        </mxCell>
        <mxCell id="Zbl4ISKt3xih8UZG1c8V-15" value="&lt;font style=&quot;background-color: light-dark(#ffffff, var(--ge-dark-color, #121212));&quot; face=&quot;Times New Roman&quot;&gt;Ingresar al portal empresarial desde la URL:&amp;nbsp;&lt;span style=&quot;text-align: start;&quot;&gt;https://portalempresarial.utec.edu.sv/uonline/&lt;/span&gt;&lt;/font&gt;" style="whiteSpace=wrap;html=1;rounded=0;fontSize=14;" vertex="1" parent="1">
          <mxGeometry x="261.06" y="337" width="300.88" height="38" as="geometry" />
        </mxCell>
        <mxCell id="Zbl4ISKt3xih8UZG1c8V-16" value="" style="edgeStyle=orthogonalEdgeStyle;rounded=0;orthogonalLoop=1;jettySize=auto;html=1;" edge="1" parent="1" source="Zbl4ISKt3xih8UZG1c8V-17">
          <mxGeometry relative="1" as="geometry">
            <mxPoint x="179" y="594" as="targetPoint" />
          </mxGeometry>
        </mxCell>
        <mxCell id="Zbl4ISKt3xih8UZG1c8V-17" value="&lt;font face=&quot;Times New Roman&quot;&gt;Virtual o Presencial?&lt;/font&gt;" style="rhombus;whiteSpace=wrap;html=1;fontSize=14;rounded=0;" vertex="1" parent="1">
          <mxGeometry x="340.5" y="509" width="142" height="80" as="geometry" />
        </mxCell>
        <mxCell id="Zbl4ISKt3xih8UZG1c8V-18" value="&lt;font face=&quot;Times New Roman&quot;&gt;Presencial&lt;/font&gt;" style="text;html=1;align=center;verticalAlign=middle;resizable=0;points=[];autosize=1;strokeColor=none;fillColor=none;" vertex="1" parent="1">
          <mxGeometry x="457" y="553" width="67" height="26" as="geometry" />
        </mxCell>
        <mxCell id="Zbl4ISKt3xih8UZG1c8V-19" value="" style="edgeStyle=orthogonalEdgeStyle;rounded=0;orthogonalLoop=1;jettySize=auto;html=1;" edge="1" parent="1" source="Zbl4ISKt3xih8UZG1c8V-20" target="Zbl4ISKt3xih8UZG1c8V-27">
          <mxGeometry relative="1" as="geometry" />
        </mxCell>
        <mxCell id="Zbl4ISKt3xih8UZG1c8V-20" value="&lt;span style=&quot;font-family: &amp;quot;Times New Roman&amp;quot;;&quot;&gt;Registro academico/Educación virtual/Generar datos preespeciliad virtual/Seleccionar ciclo/Seleccionar tipo/Seleccionar modulo/Generar Excel&lt;/span&gt;" style="whiteSpace=wrap;html=1;fontSize=14;rounded=0;" vertex="1" parent="1">
          <mxGeometry x="44.5" y="595" width="296" height="68" as="geometry" />
        </mxCell>
        <mxCell id="Zbl4ISKt3xih8UZG1c8V-21" value="&lt;font face=&quot;Times New Roman&quot;&gt;Virtual&lt;/font&gt;" style="text;html=1;align=center;verticalAlign=middle;resizable=0;points=[];autosize=1;strokeColor=none;fillColor=none;" vertex="1" parent="1">
          <mxGeometry x="295" y="553" width="51" height="26" as="geometry" />
        </mxCell>
        <mxCell id="Zbl4ISKt3xih8UZG1c8V-22" value="" style="edgeStyle=orthogonalEdgeStyle;rounded=0;orthogonalLoop=1;jettySize=auto;html=1;" edge="1" parent="1" source="Zbl4ISKt3xih8UZG1c8V-23" target="Zbl4ISKt3xih8UZG1c8V-28">
          <mxGeometry relative="1" as="geometry" />
        </mxCell>
        <mxCell id="Zbl4ISKt3xih8UZG1c8V-23" value="&lt;span style=&quot;font-family: &amp;quot;Times New Roman&amp;quot;;&quot;&gt;Registro academico/Educación virtual/Migración Preespecialidad/Seleccionar ciclo/Seleccionar módulo/Seleccionar tipo/CSV&lt;/span&gt;" style="whiteSpace=wrap;html=1;fontSize=14;rounded=0;" vertex="1" parent="1">
          <mxGeometry x="508" y="595" width="296" height="68" as="geometry" />
        </mxCell>
        <mxCell id="Zbl4ISKt3xih8UZG1c8V-24" style="edgeStyle=orthogonalEdgeStyle;rounded=0;orthogonalLoop=1;jettySize=auto;html=1;exitX=1;exitY=0.5;exitDx=0;exitDy=0;entryX=0.483;entryY=0;entryDx=0;entryDy=0;entryPerimeter=0;" edge="1" parent="1" source="Zbl4ISKt3xih8UZG1c8V-17">
          <mxGeometry relative="1" as="geometry">
            <mxPoint x="640.9680000000001" y="594" as="targetPoint" />
          </mxGeometry>
        </mxCell>
        <mxCell id="Zbl4ISKt3xih8UZG1c8V-25" value="" style="edgeStyle=orthogonalEdgeStyle;rounded=0;orthogonalLoop=1;jettySize=auto;html=1;" edge="1" parent="1" source="Zbl4ISKt3xih8UZG1c8V-26" target="Zbl4ISKt3xih8UZG1c8V-17">
          <mxGeometry relative="1" as="geometry" />
        </mxCell>
        <mxCell id="Zbl4ISKt3xih8UZG1c8V-26" value="&lt;font face=&quot;Times New Roman&quot;&gt;Descargar la data correspondiente al ciclo o año solicitado desde el portal empresarial&lt;/font&gt;" style="whiteSpace=wrap;html=1;fontSize=14;rounded=0;" vertex="1" parent="1">
          <mxGeometry x="303.06" y="410" width="216.88" height="60" as="geometry" />
        </mxCell>
        <mxCell id="Zbl4ISKt3xih8UZG1c8V-27" value="&lt;font face=&quot;Times New Roman&quot;&gt;Crear un archivo de excel con todo el consolidado de los módulos 1 al 7&lt;/font&gt;" style="whiteSpace=wrap;html=1;fontSize=14;rounded=0;" vertex="1" parent="1">
          <mxGeometry x="110.75" y="704" width="163.5" height="60" as="geometry" />
        </mxCell>
        <mxCell id="Zbl4ISKt3xih8UZG1c8V-28" value="&lt;span style=&quot;font-family: &amp;quot;Times New Roman&amp;quot;;&quot;&gt;Crear un archivo de excel con todo el consolidado de los módulos 1 al 7&lt;/span&gt;" style="whiteSpace=wrap;html=1;fontSize=14;rounded=0;" vertex="1" parent="1">
          <mxGeometry x="575" y="704" width="162" height="60" as="geometry" />
        </mxCell>
        <mxCell id="Zbl4ISKt3xih8UZG1c8V-29" value="" style="endArrow=none;html=1;rounded=0;" edge="1" parent="1">
          <mxGeometry width="50" height="50" relative="1" as="geometry">
            <mxPoint x="192" y="798" as="sourcePoint" />
            <mxPoint x="192.33000000000004" y="764" as="targetPoint" />
          </mxGeometry>
        </mxCell>
        <mxCell id="Zbl4ISKt3xih8UZG1c8V-30" value="" style="endArrow=none;html=1;rounded=0;" edge="1" parent="1">
          <mxGeometry width="50" height="50" relative="1" as="geometry">
            <mxPoint x="655.83" y="798" as="sourcePoint" />
            <mxPoint x="656.1600000000001" y="764" as="targetPoint" />
          </mxGeometry>
        </mxCell>
        <mxCell id="Zbl4ISKt3xih8UZG1c8V-31" value="" style="endArrow=none;html=1;rounded=0;" edge="1" parent="1">
          <mxGeometry width="50" height="50" relative="1" as="geometry">
            <mxPoint x="192" y="798" as="sourcePoint" />
            <mxPoint x="655" y="798" as="targetPoint" />
          </mxGeometry>
        </mxCell>
        <mxCell id="Zbl4ISKt3xih8UZG1c8V-32" value="" style="edgeStyle=orthogonalEdgeStyle;rounded=0;orthogonalLoop=1;jettySize=auto;html=1;" edge="1" parent="1" source="Zbl4ISKt3xih8UZG1c8V-33" target="Zbl4ISKt3xih8UZG1c8V-35">
          <mxGeometry relative="1" as="geometry" />
        </mxCell>
        <mxCell id="Zbl4ISKt3xih8UZG1c8V-33" value="&lt;font face=&quot;Times New Roman&quot;&gt;&lt;span style=&quot;font-size: 14px;&quot;&gt;Contabilizar datos únicos de ambos consolidados&lt;/span&gt;&lt;/font&gt;" style="rounded=0;whiteSpace=wrap;html=1;" vertex="1" parent="1">
          <mxGeometry x="302.11" y="839" width="218.78" height="52" as="geometry" />
        </mxCell>
        <mxCell id="Zbl4ISKt3xih8UZG1c8V-34" value="" style="endArrow=classic;html=1;rounded=0;entryX=0.5;entryY=0;entryDx=0;entryDy=0;" edge="1" parent="1" target="Zbl4ISKt3xih8UZG1c8V-33">
          <mxGeometry width="50" height="50" relative="1" as="geometry">
            <mxPoint x="412" y="799" as="sourcePoint" />
            <mxPoint x="413" y="843" as="targetPoint" />
          </mxGeometry>
        </mxCell>
        <mxCell id="Zbl4ISKt3xih8UZG1c8V-35" value="&lt;font style=&quot;font-size: 14px;&quot; face=&quot;Times New Roman&quot;&gt;Trasladar datos obtenidos al documento de Excel con el histórico según carrera&lt;/font&gt;" style="whiteSpace=wrap;html=1;rounded=0;" vertex="1" parent="1">
          <mxGeometry x="317.13" y="923" width="188.75" height="52" as="geometry" />
        </mxCell>
      </root>
    </mxGraphModel>
  </diagram>
</mxfile>
